<?xml version="1.0" encoding="UTF-8"?>
<svg xmlns="http://www.w3.org/2000/svg" width="128" height="32" viewBox="0 0 128 32" role="img" aria-label="Logo">
  <defs>
    <linearGradient id="g" x1="0" y1="0" x2="1" y2="1">
      <stop offset="0%" stop-color="#2563eb"/>
      <stop offset="100%" stop-color="#06b6d4"/>
    </linearGradient>
  </defs>
  <rect width="32" height="32" rx="6" fill="url(#g)"/>
  <path d="M20.5 9.5c-1.8-1.8-5-1.8-6.8 0-.4.4-.7 1-.7 1.6 0 1.2.9 2.1 2.1 2.1.6 0 1.2-.2 1.6-.7.6-.6 1.6-.6 2.2 0s.6 1.6 0 2.2l-6.2 6.2c-.4.4-.7 1-.7 1.6 0 1.2.9 2.1 2.1 2.1.6 0 1.2-.2 1.6-.7l6.2-6.2c1.8-1.8 1.8-5 0-6.8z" fill="#fff"/>
  <text x="44" y="22" font-family="system-ui, -apple-system, Segoe UI, Roboto, Helvetica, Arial, sans-serif" font-size="16" font-weight="700" fill="#111827">Shop</text>
</svg>

